<?xml version="1.0" standalone="no"?><!DOCTYPE svg PUBLIC "-//W3C//DTD SVG 1.1//EN" "http://www.w3.org/Graphics/SVG/1.1/DTD/svg11.dtd"><svg t="1596270357694" class="icon" viewBox="0 0 1024 1024" version="1.1" xmlns="http://www.w3.org/2000/svg" p-id="5123" xmlns:xlink="http://www.w3.org/1999/xlink" width="200" height="200"><defs><style type="text/css"></style></defs><path d="M992.530141 915.908392c0 14.551649-2.93703 29.058798-8.722089 40.717917-5.87406 11.614619-11.70362 23.229238-20.381209 34.888358-9.434097 9.345096-20.292208 17.177176-32.12933 23.273739-11.614619 5.785059-26.166268 8.722089-40.762418 8.722089H130.111298c-14.59615 0-29.147799-2.93703-40.762418-8.722089-14.64065-5.785059-26.210769-11.570119-35.021859-23.229239a104.531572 104.531572 0 0 1-23.273739-34.932858A92.738951 92.738951 0 0 1 22.286692 915.908392V337.268958c0-29.058798 11.70362-55.269567 32.040329-75.606275a105.911086 105.911086 0 0 1 75.784277-31.995828h763.316327c29.192299 0 55.358568 11.570119 75.784277 32.040329 20.381209 20.381209 32.084829 46.502977 32.084829 75.561774v156.99761h-271.007779c-29.147799 0-55.314067 8.76659-75.784277 29.103299-20.336709 20.381209-32.040329 43.654948-32.040329 75.606275 0 20.381209 5.87406 37.825388 11.70362 52.332536 5.785059 14.59615 17.444179 26.166268 32.040329 34.932859 14.551649 11.570119 34.932858 17.355178 61.188127 17.355178h265.133719v212.267176zM835.221028 177.423319H307.84612c40.762418-20.336709 81.569336-43.610447 119.439225-63.947155l96.120986-52.421538C555.49116 43.610447 578.809399 32.040329 599.190608 20.336709 625.356876 5.785059 651.612145 0 671.993354 0c20.381209 0 40.806918 5.785059 55.403068 11.570119 17.488679 8.76659 32.040329 20.47021 43.654948 34.977358l64.080657 130.831342h0.089001z m-157.353614 421.686324c0-14.59615 5.82956-26.255269 14.507149-37.869888 10.324106-9.478597 23.852245-14.685151 37.914389-14.551649 14.59615 0 26.166268 5.87406 37.869888 14.551649 8.76659 8.722089 14.59615 23.273739 14.59615 37.825388 0 14.507149-5.82956 26.166268-14.59615 37.780887-8.722089 11.570119-23.273739 14.507149-37.869888 14.507149-14.551649 0-26.166268-5.785059-37.914389-14.507149a50.241015 50.241015 0 0 1-14.507149-37.825388v0.089001z" p-id="5124"></path></svg>