<?xml version="1.0" standalone="no"?><!DOCTYPE svg PUBLIC "-//W3C//DTD SVG 1.1//EN"
  "http://www.w3.org/Graphics/SVG/1.1/DTD/svg11.dtd">
<svg t="1572781148528" class="icon" viewBox="0 0 1024 1024" version="1.1" xmlns="http://www.w3.org/2000/svg" p-id="6253"
     xmlns:xlink="http://www.w3.org/1999/xlink" width="200" height="200">
  <defs>
    <style type="text/css"></style>
  </defs>
  <path
    d="M865.8 1024H0c0-60.1 11.4-118.7 33.9-174 21.7-53.5 52.9-101.7 92.5-143.2 39.8-41.7 86.1-74.4 137.6-97.3 10.5-4.7 21.2-8.9 32-12.7-104.8-50.9-177.1-158.3-177.1-282.7C118.8 140.6 259.4 0 432.9 0S747 140.6 747 314.1c0 124.3-72.3 231.8-177.1 282.7 10.8 3.8 21.4 8 32 12.7 51.5 22.9 97.8 55.7 137.6 97.3 39.6 41.5 70.7 89.7 92.5 143.2 22.4 55.3 33.8 113.9 33.8 174z m90.8-365.5c-26.5-35.9-60.4-69.5-101-100.3 41.4-63.7 68.4-134 77.3-202.1 13.8-106-16.7-202.9-88.2-280.2-18.8-20.3-50.4-21.5-70.7-2.7-20.3 18.8-21.5 50.4-2.7 70.7 113.6 122.7 58.7 288-22.7 392.3-7.7 9.8-11.1 21.7-10.5 33.2-0.9 17.3 7.2 34.5 22.8 44.6C835.3 662 924 742.4 924 853c0 27.6 22.4 50 50 50s50-22.4 50-50c0-68.6-22.7-134-67.4-194.5z"
    p-id="6254"></path>
</svg>
