<?xml version="1.0" standalone="no"?><!DOCTYPE svg PUBLIC "-//W3C//DTD SVG 1.1//EN" "http://www.w3.org/Graphics/SVG/1.1/DTD/svg11.dtd"><svg t="1596270596286" class="icon" viewBox="0 0 1024 1024" version="1.1" xmlns="http://www.w3.org/2000/svg" p-id="1159" xmlns:xlink="http://www.w3.org/1999/xlink" width="200" height="200"><defs><style type="text/css"></style></defs><path d="M926.72 44.032H97.28c-53.248 0-96.256 43.52-96.256 96.256v128c0 53.248 43.52 96.256 96.256 96.256h72.704v519.68c0 53.248 43.52 96.256 96.256 96.256h492.544c53.248 0 96.256-43.52 96.256-96.256V365.056h72.704c53.248 0 94.72-43.52 94.72-96.256v-128c0.512-53.76-43.008-96.768-95.744-96.768zM703.488 675.84c20.992 0 39.424 18.432 39.424 39.424s-18.432 39.424-39.424 39.424h-153.088v113.664c0 15.872-18.432 29.184-39.424 29.184s-39.424-13.312-39.424-29.184V754.688h-153.088c-20.992 0-39.424-18.432-39.424-39.424s18.432-39.424 39.424-39.424H471.04v-39.424h-153.088c-20.992 0-39.424-18.432-39.424-39.424s18.432-39.424 39.424-39.424H476.16L331.264 409.6c-15.872-15.872-15.872-39.424 0-55.296 15.872-15.872 39.424-15.872 55.296 0l126.464 129.024 124.416-129.536c15.872-15.872 39.424-15.872 55.296 0s15.872 39.424 0 55.296L547.84 557.056h158.208c20.992 0 39.424 18.432 39.424 39.424s-18.432 39.424-39.424 39.424h-155.648v39.424h153.088v0.512z m260.096-403.968c0 17.92-17.408 32.256-35.328 32.256h-76.8c0-9.728-2.048-25.6-6.144-35.328 25.6 0 47.104-21.504 47.104-47.104s-21.504-47.104-47.104-47.104H176.128c-25.6 0-47.104 21.504-47.104 47.104s21.504 47.104 47.104 47.104c-4.096 9.728-6.144 23.552-6.144 35.328h-76.8c-17.92 0-31.744-13.824-31.744-31.744v-135.68c0-17.92 13.824-31.744 31.744-31.744H931.84c17.92 0 31.744 13.824 31.744 31.744V271.872z" p-id="1160"></path></svg>