<?xml version="1.0" standalone="no"?><!DOCTYPE svg PUBLIC "-//W3C//DTD SVG 1.1//EN" "http://www.w3.org/Graphics/SVG/1.1/DTD/svg11.dtd"><svg t="1596270900436" class="icon" viewBox="0 0 1024 1024" version="1.1" xmlns="http://www.w3.org/2000/svg" p-id="3165" xmlns:xlink="http://www.w3.org/1999/xlink" width="200" height="200"><defs><style type="text/css"></style></defs><path d="M877.568 109.568h-156.672c-7.168-30.208-36.864-53.76-71.68-53.76h-77.824c-9.728-23.552-33.28-38.4-60.416-38.4-27.136 0-50.688 15.36-60.416 38.4H372.224c-34.304 0-64 23.552-71.68 53.76H144.384c-40.448 0-71.68 31.232-71.68 69.632v751.616c0 38.4 32.256 69.632 71.68 69.632h732.16c40.448 0 75.264-31.232 75.264-69.632V179.2c0.512-38.4-33.792-69.632-74.24-69.632zM512.512 143.36c33.28 0 59.392 25.6 59.392 55.808 0 31.232-27.136 55.808-59.392 55.808-33.28 0-58.88-25.6-58.88-55.808s25.6-55.808 58.88-55.808z m225.792 578.048c0 13.824-12.288 25.6-27.136 25.6H314.368c-14.848 0-27.136-11.776-27.136-25.6v-23.552c0-13.824 12.288-25.6 27.136-25.6h396.8c14.848 0 27.136 11.776 27.136 25.6v23.552z m0-236.032c0 13.824-12.288 25.6-27.136 25.6H314.368c-14.848 0-27.136-11.776-27.136-25.6v-23.552c0-13.824 12.288-25.6 27.136-25.6h396.8c14.848 0 27.136 11.776 27.136 25.6v23.552z" p-id="3166"></path></svg>