<?xml version="1.0" standalone="no"?><!DOCTYPE svg PUBLIC "-//W3C//DTD SVG 1.1//EN" "http://www.w3.org/Graphics/SVG/1.1/DTD/svg11.dtd"><svg t="1596270513482" class="icon" viewBox="0 0 1024 1024" version="1.1" xmlns="http://www.w3.org/2000/svg" p-id="5675" xmlns:xlink="http://www.w3.org/1999/xlink" width="200" height="200"><defs><style type="text/css"></style></defs><path d="M390.192466 256.408263H639.659781c70.362576 0 127.931956-166.311543 127.931956-166.311543 0-44.776185 0-83.155772-89.552369-89.55237C594.883596 0.54435 575.693803 64.510329 511.727825 64.510329S422.175455 13.337546 345.416282 0.54435C268.657108-5.852247 255.863912 45.320535 255.863912 90.09672 255.863912 90.09672 313.433293 256.408263 390.192466 256.408263zM646.056379 333.167437H377.399271C76.759174 333.167437 0 883.274848 0 883.274848 0 953.637424 63.965978 1024 140.725152 1024h742.005346c76.759174 0 140.725152-70.362576 140.725152-147.12175 0 6.396598-76.759174-543.710814-377.399271-543.710813z m31.982989 319.82989H537.314216v57.56938h134.328554v51.172783H537.314216v108.742163h-51.172782v-108.742163H345.416282v-51.172783h134.328554v-57.56938h-127.931956v-51.172782h108.742162L351.81288 480.289186l38.379586-31.982989L511.727825 582.634751 626.866585 448.306197l38.379587 31.982989-102.345565 121.535359h115.138761v51.172782z" p-id="5676"></path></svg>